{"title":"The.Walk.2015.BRRip.720p.x264.AAC-PRiSTiNE [P2PDL]","uid":13028990,"size":846834872,"categoryP":"video","categoryS":"movies","magnet":"?xt=urn:btih:521cc901491582c2aa98e2c147718171fdeb9976&amp;dn=The.Walk.2015.BRRip.720p.x264.AAC-PRiSTiNE+%5BP2PDL%5D&amp;tr=udp%3A%2F%2Ftracker.leechers-paradise.org%3A6969&amp;tr=udp%3A%2F%2Fzer0day.ch%3A1337&amp;tr=udp%3A%2F%2Fopen.demonii.com%3A1337&amp;tr=udp%3A%2F%2Ftracker.coppersurfer.tk%3A6969&amp;tr=udp%3A%2F%2Fexodus.desync.com%3A6969","seeders":10,"leechers":0,"uploader":"VYTOP2PDL","files":7,"time":1450432957,"description":"____    ____ ____    ____ .___________.  ______   \r\n     /   /      /   / |           | /  __    \r\n    /   /      /   /  `---|  |----`|  |  |  | \r\n        /     _    _/       |  |     |  |  |  | \r\n       /        |  |         |  |     |  `--'  | \r\n    __/         |__|         |__|      ______/  \r\n                                                  \r\nPresenting Small Encodes with quality for years!\r\n                                                                                                   \r\n                                                                                                   \r\n\r\nThe.Walk.2015.BRRip.720p.x264.AAC-PRiSTiNE\r\n\r\n\r\nGenre:  Adventure, Biography, Drama \nhttp://www.imdb.com/title/tt3488710/\r\n\r\n\r\nGeneral\r\nFormat                                   : MPEG-4\r\nFile size                                : 796 MiB\r\nDuration                                 : 2h 3mn\r\nOverall bit rate                         : 904 Kbps\r\n\r\nVideo\r\nFormat                                   : AVC\r\nBit rate                                 : 821 Kbps\r\nWidth                                    : 1 264 pixels\r\nHeight                                   : 528 pixels\r\nDisplay aspect ratio                     : 2.40:1\r\nFrame rate mode                          : Constant\r\nFrame rate                               : 23.976 fps\r\nBit depth                                : 8 bits\r\nStream size                              : 723 MiB (91%)\r\nWriting library                          : x264 1\r\n\r\nAudio\r\nFormat                                   : AAC\r\nBit rate mode                            : Variable\r\nBit rate                                 : 79.9 Kbps\r\nChannel(s)                               : 2 channels\r\nChannel positions                        : Front: L R\r\nSampling rate                            : 48.0 KHz\r\nStream size                              : 70.4 MiB (9%)\r\nLanguage                                 : English\r\n\r\nSubtitle                                 : Yes (English)\r\n\r\nScreen Shots: (Click to view)\r\n \nhttp://ititli.com/fK \nhttp://ititli.com/fV \nhttp://ititli.com/ft \nhttp://ititli.com/fL \nhttp://ititli.com/fd \nhttp://ititli.com/f0 \nhttp://ititli.com/fA \nhttp://ititli.com/fl \nhttp://ititli.com/fm\r\n\r\n----------------------------------------------------------------------------------------------------\r\n\r\n\r\nEncoder Notes: Looking For Early Access To Anything You Can Provide WEBDL, DVDScr, DVDR, BluRay,\r\nDirect Audio, Music Releases and Seedboxes. If You Got anything to offer please contact us.\r\n\r\nSupport us by donating BC - 1FgwdzPsd1y25Gea8wP1qni35uGCtmkRCD\r\n\r\nSend some love!\r\nFind us and join us!","torrent":{"xt":"urn:btih:521cc901491582c2aa98e2c147718171fdeb9976","amp;dn":"The.Walk.2015.BRRip.720p.x264.AAC-PRiSTiNE+%5BP2PDL%5D","amp;tr":["udp%3A%2F%2Ftracker.leechers-paradise.org%3A6969","udp%3A%2F%2Fzer0day.ch%3A1337","udp%3A%2F%2Fopen.demonii.com%3A1337","udp%3A%2F%2Ftracker.coppersurfer.tk%3A6969","udp%3A%2F%2Fexodus.desync.com%3A6969"],"infoHash":"521cc901491582c2aa98e2c147718171fdeb9976","infoHashBuffer":{"type":"Buffer","data":[82,28,201,1,73,21,130,194,170,152,226,193,71,113,129,113,253,235,153,118]},"announce":[],"urlList":[]}}